<svg width="180" height="55" viewBox="0 0 180 55" fill="none" xmlns="http://www.w3.org/2000/svg">
<rect x="2.5" y="2.5" width="175" height="50.5556" rx="7.77778" fill="white"/>
<path d="M41.5548 27.5046C41.5172 23.4311 44.9757 21.4493 45.1338 21.357C43.1751 18.5727 40.1392 18.1923 39.0723 18.1619C36.5225 17.9003 34.0492 19.6495 32.7503 19.6495C31.4255 19.6495 29.4253 18.1872 27.2696 18.2302C24.4955 18.2719 21.9003 19.8379 20.477 22.2696C17.5396 27.2278 19.7303 34.5141 22.5446 38.5219C23.9523 40.4847 25.5973 42.6763 27.7505 42.5992C29.857 42.5145 30.6438 41.2898 33.1859 41.2898C35.7046 41.2898 36.4435 42.5992 38.6394 42.5499C40.9001 42.5145 42.3235 40.5783 43.682 38.5978C45.3088 36.348 45.9622 34.1324 45.9881 34.0187C45.9349 34.001 41.5975 32.387 41.5548 27.5046Z" fill="#0F0F0F"/>
<path d="M37.4066 15.5255C38.5396 14.144 39.3147 12.2646 39.0996 10.3574C37.4597 10.4282 35.409 11.4633 34.2281 12.8144C33.1833 14.005 32.2499 15.9564 32.491 17.7916C34.3331 17.9256 36.2244 16.8854 37.4066 15.5255Z" fill="#0F0F0F"/>
<path d="M66.0601 14.7213C66.0601 16.2089 65.6025 17.3287 64.6886 18.0807C63.8421 18.7746 62.6391 19.1222 61.081 19.1222C60.3084 19.1222 59.6473 19.0893 59.0938 19.0236V10.8955C59.8158 10.7818 60.5936 10.7236 61.4336 10.7236C62.9178 10.7236 64.0365 11.0383 64.791 11.6678C65.6362 12.3793 66.0601 13.3968 66.0601 14.7213ZM64.6276 14.758C64.6276 13.7936 64.3658 13.0542 63.8421 12.5386C63.3184 12.0242 62.5536 11.7663 61.5463 11.7663C61.1186 11.7663 60.7543 11.7941 60.4523 11.8523V18.0314C60.6195 18.0567 60.9254 18.0681 61.37 18.0681C62.4097 18.0681 63.2121 17.7862 63.7773 17.2226C64.3425 16.6589 64.6276 15.8373 64.6276 14.758Z" fill="#0F0F0F"/>
<path d="M73.653 16.0198C73.653 16.9361 73.3846 17.6868 72.848 18.2758C72.2854 18.8812 71.54 19.1833 70.6093 19.1833C69.7122 19.1833 68.998 18.8939 68.4652 18.3125C67.9337 17.7323 67.668 17.0006 67.668 16.1184C67.668 15.1957 67.9415 14.4387 68.4911 13.8509C69.0407 13.2632 69.7796 12.9688 70.7104 12.9688C71.6074 12.9688 72.3282 13.2582 72.8739 13.8383C73.3924 14.402 73.653 15.13 73.653 16.0198ZM72.2439 16.0627C72.2439 15.513 72.122 15.0415 71.8796 14.6485C71.5945 14.1732 71.1887 13.9356 70.6611 13.9356C70.1154 13.9356 69.7006 14.1732 69.4154 14.6485C69.1717 15.0415 69.0511 15.5205 69.0511 16.0868C69.0511 16.6366 69.173 17.108 69.4154 17.5011C69.7096 17.9763 70.1193 18.2139 70.6482 18.2139C71.1667 18.2139 71.5737 17.9725 71.8667 17.4884C72.1182 17.0878 72.2439 16.6125 72.2439 16.0627Z" fill="#0F0F0F"/>
<path d="M83.8342 13.0913L81.9221 19.0493H80.6777L79.8857 16.4621C79.6847 15.8163 79.5214 15.1742 79.3944 14.5372H79.3697C79.2518 15.1919 79.0884 15.8327 78.8784 16.4621L78.0371 19.0493H76.7784L74.9805 13.0913H76.3766L77.0675 15.9237C77.2347 16.5935 77.3721 17.2318 77.4823 17.8359H77.5069C77.6081 17.338 77.7753 16.7035 78.0112 15.9363L78.8784 13.0926H79.9855L80.8164 15.8757C81.0173 16.5544 81.1806 17.2078 81.3064 17.8372H81.344C81.436 17.2242 81.5747 16.5708 81.7588 15.8757L82.5003 13.0926H83.8342V13.0913Z" fill="#0F0F0F"/>
<path d="M90.8836 19.0489H89.5251V15.6364C89.5251 14.5849 89.1155 14.0591 88.2936 14.0591C87.8905 14.0591 87.5651 14.2032 87.3123 14.4926C87.0622 14.782 86.9351 15.1233 86.9351 15.5138V19.0477H85.5766V14.7934C85.5766 14.2702 85.5598 13.7027 85.5273 13.0884H86.7212L86.7847 14.0199H86.8223C86.9805 13.7305 87.2164 13.4916 87.5262 13.3008C87.8944 13.0783 88.3066 12.9658 88.7577 12.9658C89.3281 12.9658 89.8025 13.1453 90.1797 13.5055C90.649 13.9466 90.8836 14.6051 90.8836 15.4797V19.0489Z" fill="#0F0F0F"/>
<path d="M94.6267 19.0492H93.2695V10.3574H94.6267V19.0492Z" fill="#0F0F0F"/>
<path d="M102.626 16.0198C102.626 16.9361 102.357 17.6868 101.821 18.2758C101.258 18.8812 100.511 19.1833 99.5819 19.1833C98.6836 19.1833 97.9693 18.8939 97.4378 18.3125C96.9064 17.7323 96.6406 17.0006 96.6406 16.1184C96.6406 15.1957 96.9141 14.4387 97.4638 13.8509C98.0134 13.2632 98.7523 12.9688 99.6817 12.9688C100.58 12.9688 101.3 13.2582 101.847 13.8383C102.365 14.402 102.626 15.13 102.626 16.0198ZM101.215 16.0627C101.215 15.513 101.093 15.0415 100.851 14.6485C100.567 14.1732 100.16 13.9356 99.6338 13.9356C99.0867 13.9356 98.6719 14.1732 98.388 14.6485C98.1443 15.0415 98.0238 15.5205 98.0238 16.0868C98.0238 16.6366 98.1456 17.108 98.388 17.5011C98.6823 17.9763 99.0919 18.2139 99.6208 18.2139C100.139 18.2139 100.545 17.9725 100.838 17.4884C101.091 17.0878 101.215 16.6125 101.215 16.0627Z" fill="#0F0F0F"/>
<path d="M109.204 19.0481H107.984L107.883 18.3618H107.846C107.428 18.909 106.833 19.1833 106.061 19.1833C105.484 19.1833 105.017 19.0026 104.666 18.6436C104.347 18.3175 104.188 17.9118 104.188 17.4303C104.188 16.7023 104.499 16.1474 105.125 15.7632C105.75 15.379 106.628 15.1907 107.76 15.1995V15.0883C107.76 14.3034 107.337 13.9116 106.491 13.9116C105.888 13.9116 105.357 14.0595 104.898 14.3527L104.622 13.4832C105.19 13.1406 105.891 12.9688 106.718 12.9688C108.315 12.9688 109.116 13.7903 109.116 15.4333V17.6274C109.116 18.2227 109.146 18.6967 109.204 19.0481ZM107.794 17.0006V16.0817C106.295 16.0564 105.546 16.4571 105.546 17.2824C105.546 17.5933 105.632 17.8259 105.807 17.9813C105.982 18.1368 106.205 18.2139 106.47 18.2139C106.768 18.2139 107.047 18.1216 107.301 17.9384C107.557 17.7538 107.713 17.52 107.772 17.2331C107.786 17.1687 107.794 17.0903 107.794 17.0006Z" fill="#0F0F0F"/>
<path d="M116.923 19.0492H115.718L115.654 18.0924H115.617C115.232 18.8204 114.576 19.1844 113.654 19.1844C112.918 19.1844 112.304 18.9026 111.818 18.3389C111.332 17.7752 111.09 17.0434 111.09 16.1448C111.09 15.1804 111.353 14.3993 111.882 13.8028C112.394 13.2467 113.021 12.9686 113.768 12.9686C114.589 12.9686 115.163 13.2378 115.489 13.7775H115.515V10.3574H116.875V17.444C116.875 18.0242 116.891 18.5588 116.923 19.0492ZM115.515 16.5366V15.5432C115.515 15.3713 115.502 15.2322 115.478 15.1261C115.401 14.8076 115.237 14.5396 114.987 14.3235C114.734 14.1074 114.429 13.9987 114.078 13.9987C113.571 13.9987 113.174 14.1946 112.883 14.5877C112.594 14.9807 112.447 15.4825 112.447 16.0955C112.447 16.6845 112.586 17.1622 112.864 17.53C113.159 17.9218 113.555 18.1177 114.052 18.1177C114.498 18.1177 114.854 17.9547 115.125 17.6273C115.387 17.3252 115.515 16.9612 115.515 16.5366Z" fill="#0F0F0F"/>
<path d="M128.544 16.0198C128.544 16.9361 128.275 17.6868 127.739 18.2758C127.176 18.8812 126.432 19.1833 125.5 19.1833C124.604 19.1833 123.89 18.8939 123.356 18.3125C122.824 17.7323 122.559 17.0006 122.559 16.1184C122.559 15.1957 122.832 14.4387 123.382 13.8509C123.931 13.2632 124.67 12.9688 125.602 12.9688C126.498 12.9688 127.22 13.2582 127.765 13.8383C128.283 14.402 128.544 15.13 128.544 16.0198ZM127.136 16.0627C127.136 15.513 127.014 15.0415 126.772 14.6485C126.485 14.1732 126.081 13.9356 125.552 13.9356C125.007 13.9356 124.592 14.1732 124.306 14.6485C124.062 15.0415 123.942 15.5205 123.942 16.0868C123.942 16.6366 124.064 17.108 124.306 17.5011C124.6 17.9763 125.01 18.2139 125.539 18.2139C126.057 18.2139 126.466 17.9725 126.759 17.4884C127.009 17.0878 127.136 16.6125 127.136 16.0627Z" fill="#0F0F0F"/>
<path d="M135.839 19.0489H134.482V15.6364C134.482 14.5849 134.073 14.0591 133.249 14.0591C132.846 14.0591 132.521 14.2032 132.269 14.4926C132.018 14.782 131.892 15.1233 131.892 15.5138V19.0477H130.532V14.7934C130.532 14.2702 130.517 13.7027 130.484 13.0884H131.677L131.74 14.0199H131.778C131.938 13.7305 132.173 13.4916 132.482 13.3008C132.851 13.0783 133.262 12.9658 133.715 12.9658C134.284 12.9658 134.758 13.1453 135.135 13.5055C135.606 13.9466 135.839 14.6051 135.839 15.4797V19.0489Z" fill="#0F0F0F"/>
<path d="M144.983 14.0834H143.487V16.9777C143.487 17.7133 143.753 18.0811 144.279 18.0811C144.523 18.0811 144.725 18.0608 144.885 18.0191L144.92 19.0239C144.652 19.1225 144.299 19.1718 143.865 19.1718C143.328 19.1718 142.911 19.0125 142.609 18.694C142.305 18.3755 142.155 17.8397 142.155 17.0876V14.0834H141.262V13.0912H142.155V11.9992L143.486 11.6074V13.09H144.982V14.0834H144.983Z" fill="#0F0F0F"/>
<path d="M152.178 19.0492H150.818V15.662C150.818 14.594 150.409 14.0594 149.588 14.0594C148.958 14.0594 148.528 14.369 148.292 14.9883C148.252 15.1185 148.228 15.2777 148.228 15.4648V19.0479H146.871V10.3574H148.228V13.9481H148.254C148.682 13.2947 149.295 12.9686 150.09 12.9686C150.652 12.9686 151.118 13.1481 151.487 13.5083C151.947 13.957 152.178 14.6243 152.178 15.5065V19.0492Z" fill="#0F0F0F"/>
<path d="M159.597 15.7879C159.597 16.0255 159.579 16.2252 159.546 16.3882H155.472C155.49 16.9772 155.685 17.4259 156.062 17.7368C156.407 18.0148 156.851 18.1539 157.396 18.1539C157.999 18.1539 158.548 18.0603 159.043 17.872L159.256 18.7921C158.676 19.0373 157.995 19.1599 157.205 19.1599C156.259 19.1599 155.514 18.8882 154.974 18.3447C154.432 17.8012 154.164 17.072 154.164 16.1569C154.164 15.2583 154.414 14.5101 154.919 13.9135C155.445 13.2765 156.156 12.958 157.055 12.958C157.934 12.958 158.601 13.2765 159.052 13.9135C159.417 14.4191 159.597 15.0447 159.597 15.7879ZM158.301 15.4453C158.311 15.0523 158.221 14.7135 158.037 14.4279C157.801 14.0601 157.442 13.8756 156.956 13.8756C156.513 13.8756 156.151 14.0551 155.875 14.4153C155.65 14.7022 155.516 15.0447 155.472 15.4453H158.301Z" fill="#0F0F0F"/>
<path d="M72.2201 42.0845H69.2762L67.6637 37.1439H62.0585L60.5224 42.0845H57.6562L63.2096 25.2646H66.6396L72.2201 42.0845ZM67.1775 35.0712L65.7192 30.6791C65.565 30.2305 65.2759 29.1739 64.8494 27.5106H64.7975C64.6277 28.2259 64.3542 29.2826 63.9783 30.6791L62.5459 35.0712H67.1775Z" fill="#0F0F0F"/>
<path d="M86.5025 35.8705C86.5025 37.9332 85.9308 39.5636 84.7875 40.7605C83.7634 41.826 82.4918 42.3581 80.9738 42.3581C79.3353 42.3581 78.1583 41.7843 77.4414 40.6367H77.3895V47.0256H74.6258V33.9482C74.6258 32.6514 74.5908 31.3205 74.5234 29.9555H76.954L77.1083 31.8779H77.1601C78.0818 30.4295 79.4805 29.7065 81.3575 29.7065C82.8249 29.7065 84.0499 30.2715 85.0299 31.4027C86.0125 32.5351 86.5025 34.024 86.5025 35.8705ZM83.687 35.9691C83.687 34.7886 83.4147 33.8154 82.8677 33.0495C82.2701 32.2508 81.4677 31.8514 80.4618 31.8514C79.7799 31.8514 79.1603 32.0738 78.6068 32.5124C78.052 32.9547 77.689 33.5323 77.5192 34.2477C77.4336 34.5814 77.3908 34.8544 77.3908 35.0692V37.0914C77.3908 37.9736 77.6683 38.7181 78.2231 39.326C78.7779 39.9339 79.4986 40.2373 80.3853 40.2373C81.4262 40.2373 82.2364 39.8455 82.8158 39.0644C83.3966 38.282 83.687 37.2507 83.687 35.9691Z" fill="#0F0F0F"/>
<path d="M100.81 35.8705C100.81 37.9332 100.238 39.5636 99.0935 40.7605C98.0707 41.826 96.7991 42.3581 95.2811 42.3581C93.6426 42.3581 92.4655 41.7843 91.75 40.6367H91.6981V47.0256H88.9344V33.9482C88.9344 32.6514 88.8994 31.3205 88.832 29.9555H91.2626L91.4169 31.8779H91.4687C92.3891 30.4295 93.7878 29.7065 95.6661 29.7065C97.1322 29.7065 98.3572 30.2715 99.3398 31.4027C100.319 32.5351 100.81 34.024 100.81 35.8705ZM97.9943 35.9691C97.9943 34.7886 97.7207 33.8154 97.1737 33.0495C96.5761 32.2508 95.7763 31.8514 94.7691 31.8514C94.0859 31.8514 93.4676 32.0738 92.9128 32.5124C92.358 32.9547 91.9963 33.5323 91.8265 34.2477C91.7422 34.5814 91.6981 34.8544 91.6981 35.0692V37.0914C91.6981 37.9736 91.9755 38.7181 92.5278 39.326C93.0826 39.9327 93.8033 40.2373 94.6926 40.2373C95.7335 40.2373 96.5437 39.8455 97.1231 39.0644C97.7039 38.282 97.9943 37.2507 97.9943 35.9691Z" fill="#0F0F0F"/>
<path d="M116.8 37.367C116.8 38.7978 116.29 39.9618 115.268 40.8604C114.144 41.8425 112.579 42.3329 110.569 42.3329C108.712 42.3329 107.224 41.984 106.098 41.2851L106.738 39.0392C107.951 39.7545 109.283 40.1135 110.733 40.1135C111.774 40.1135 112.584 39.8834 113.166 39.4259C113.746 38.9684 114.035 38.3541 114.035 37.5882C114.035 36.9057 113.796 36.3307 113.318 35.8643C112.842 35.3979 112.048 34.9644 110.938 34.5637C107.918 33.4654 106.409 31.8565 106.409 29.7407C106.409 28.358 106.938 27.2243 107.997 26.3421C109.052 25.4587 110.46 25.0176 112.22 25.0176C113.79 25.0176 115.094 25.2843 116.135 25.8164L115.444 28.013C114.472 27.4973 113.372 27.2395 112.142 27.2395C111.17 27.2395 110.41 27.4733 109.866 27.9384C109.406 28.3542 109.175 28.8611 109.175 29.4614C109.175 30.1262 109.438 30.676 109.967 31.1083C110.427 31.5076 111.263 31.9399 112.477 32.4063C113.961 32.9889 115.051 33.6702 115.752 34.4512C116.451 35.2298 116.8 36.2043 116.8 37.367Z" fill="#0F0F0F"/>
<path d="M125.939 31.9773H122.893V37.8657C122.893 39.3635 123.429 40.1117 124.505 40.1117C124.999 40.1117 125.409 40.07 125.733 39.9866L125.809 42.0328C125.265 42.2312 124.548 42.3311 123.66 42.3311C122.568 42.3311 121.716 42.0062 121.1 41.3579C120.487 40.7082 120.178 39.6188 120.178 38.0882V31.9748H118.363V29.9525H120.178V27.7319L122.893 26.9331V29.9525H125.939V31.9773Z" fill="#0F0F0F"/>
<path d="M139.684 35.92C139.684 37.7843 139.137 39.3148 138.045 40.5117C136.901 41.744 135.381 42.3583 133.488 42.3583C131.662 42.3583 130.209 41.768 129.126 40.5876C128.042 39.4071 127.5 37.917 127.5 36.121C127.5 34.2416 128.057 32.7022 129.176 31.5053C130.292 30.3071 131.799 29.708 133.692 29.708C135.518 29.708 136.986 30.2982 138.095 31.48C139.155 32.6263 139.684 34.1063 139.684 35.92ZM136.816 36.0072C136.816 34.8887 136.571 33.9294 136.075 33.1294C135.496 32.1612 134.667 31.6784 133.594 31.6784C132.483 31.6784 131.639 32.1625 131.06 33.1294C130.563 33.9307 130.318 34.9051 130.318 36.0578C130.318 37.1763 130.563 38.1356 131.06 38.9344C131.657 39.9025 132.492 40.3853 133.569 40.3853C134.624 40.3853 135.453 39.8924 136.05 38.9091C136.56 38.0939 136.816 37.1245 136.816 36.0072Z" fill="#0F0F0F"/>
<path d="M148.667 32.3253C148.393 32.276 148.102 32.2508 147.796 32.2508C146.824 32.2508 146.072 32.6084 145.543 33.3251C145.083 33.957 144.852 34.7558 144.852 35.7201V42.0838H142.089L142.115 33.775C142.115 32.3771 142.08 31.1044 142.012 29.9568H144.419L144.52 32.2773H144.597C144.888 31.4798 145.348 30.8377 145.978 30.3562C146.594 29.9227 147.259 29.7065 147.976 29.7065C148.231 29.7065 148.462 29.7242 148.667 29.7558V32.3253Z" fill="#0F0F0F"/>
<path d="M161.031 35.4457C161.031 35.9285 160.999 36.3354 160.93 36.6678H152.639C152.672 37.866 153.072 38.7823 153.842 39.4143C154.541 39.9792 155.444 40.2623 156.554 40.2623C157.782 40.2623 158.902 40.0715 159.909 39.6885L160.342 41.5591C159.165 42.0596 157.775 42.3086 156.172 42.3086C154.243 42.3086 152.729 41.755 151.627 40.6491C150.527 39.5432 149.977 38.0581 149.977 36.1951C149.977 34.3663 150.489 32.8433 151.514 31.6287C152.587 30.332 154.038 29.6836 155.863 29.6836C157.656 29.6836 159.013 30.332 159.935 31.6287C160.665 32.6588 161.031 33.9328 161.031 35.4457ZM158.396 34.7467C158.414 33.948 158.234 33.2579 157.859 32.6752C157.381 31.9257 156.646 31.5516 155.657 31.5516C154.753 31.5516 154.018 31.9169 153.457 32.6499C152.997 33.2326 152.723 33.9315 152.639 34.7455H158.396V34.7467Z" fill="#0F0F0F"/>
<rect x="1.52778" y="1.52778" width="176.944" height="52.5" rx="8.75" stroke="#A6A6A6" stroke-width="1.94444"/>
</svg>
