<svg width="74" height="74" viewBox="0 0 74 74" fill="none" xmlns="http://www.w3.org/2000/svg">
<rect width="74" height="74" rx="37" fill="#0F0F0F"/>
<path d="M46 38.5V39.5H47V38.5H46ZM45.7282 29.2112L46.4564 28.5258V28.5258L45.7282 29.2112ZM39.2373 22.3146L39.9655 21.6293L39.9655 21.6293L39.2373 22.3146ZM23 25C23 23.8954 23.8954 23 25 23V21C22.7909 21 21 22.7909 21 25H23ZM23 49V25H21V49H23ZM25 51C23.8954 51 23 50.1046 23 49H21C21 51.2091 22.7909 53 25 53V51ZM33.858 51H25V53H33.858V51ZM33.858 51C33.6603 51 33.5 50.8397 33.5 50.642H31.5C31.5 51.9443 32.5557 53 33.858 53V51ZM33.5 50.642V39.858H31.5V50.642H33.5ZM33.5 39.858C33.5 39.6603 33.6603 39.5 33.858 39.5V37.5C32.5557 37.5 31.5 38.5557 31.5 39.858H33.5ZM33.858 39.5H46V37.5H33.858V39.5ZM45 29.8966V38.5H47V29.8966H45ZM45 29.8966V29.8966H47C47 29.3871 46.8056 28.8968 46.4564 28.5258L45 29.8966ZM38.5091 23L45 29.8966L46.4564 28.5258L39.9655 21.6293L38.5091 23ZM38.5091 23V23L39.9655 21.6293C39.5876 21.2277 39.0606 21 38.5091 21V23ZM25 23H38.5091V21H25V23Z" fill="#FFDB00"/>
<path d="M38.5 22.2414C38.5 22.1523 38.6077 22.1077 38.6707 22.1707L45.8293 29.3293C45.8923 29.3923 45.8477 29.5 45.7586 29.5H41.5C39.8431 29.5 38.5 28.1569 38.5 26.5V22.2414Z" stroke="#FFDB00" stroke-width="2"/>
<rect x="32.5" y="38.5" width="19.5" height="13.5" rx="1.35802" stroke="#FFDB00" stroke-width="2"/>
<path d="M32.5 43H52" stroke="#FFDB00" stroke-width="2" stroke-linecap="round"/>
<path d="M37 47.5H40" stroke="#FFDB00" stroke-width="2" stroke-linecap="round"/>
</svg>
