<svg width="83" height="79" viewBox="0 0 83 79" fill="none" xmlns="http://www.w3.org/2000/svg">
<g clip-path="url(#clip0_4075_34075)">
<g clip-path="url(#clip1_4075_34075)">
<mask id="mask0_4075_34075" style="mask-type:luminance" maskUnits="userSpaceOnUse" x="-13" y="-15" width="109" height="109">
<path d="M95.6248 -14.5488H-12.4727V93.5487H95.6248V-14.5488Z" fill="white"/>
</mask>
<g mask="url(#mask0_4075_34075)">
<path d="M6.625 5.80935L76.5432 0.889648L76.0217 36.7165L68.0005 36.8044L65.568 64.0202L12.966 65.2909L6.625 5.80935Z" fill="white"/>
<path d="M28.8752 36.9352C34.3138 36.6641 38.601 34.4384 41.2916 30.6657L35.7428 26.0622C33.9978 28.4179 31.7812 29.7699 28.9566 29.9107C24.1081 30.1524 20.5693 26.9042 20.3204 21.7797C20.0713 16.6552 23.2783 13.0707 28.1266 12.8291C30.9514 12.6883 33.2883 13.8133 35.2532 15.9841L40.329 10.8511C37.2857 7.36406 32.8035 5.5756 27.3648 5.84669C18.0052 6.31318 11.4463 13.104 11.8882 22.1999C12.3302 31.2959 19.5156 37.4016 28.8752 36.9352Z" fill="#0F0F0F"/>
<path d="M63.5085 34.6098L72.4465 34.1644L65.6238 25.0868C69.2046 23.1103 71.155 19.7599 70.9413 15.3613C70.6094 8.52869 65.3447 4.55315 57.2921 4.95451L43.8008 5.62695L45.2531 35.5198L53.6008 35.1037L53.215 27.1607L57.7683 26.9338L63.5085 34.6098ZM62.5092 15.7816C62.642 18.5146 60.9923 20.2236 57.5352 20.3959L52.8975 20.6271L52.4722 11.8727L57.1099 11.6416C60.567 11.4693 62.3743 13.0059 62.5092 15.7816Z" fill="#0F0F0F"/>
<path d="M26.4787 64.1157L33.629 63.7346L32.2988 38.1294L25.1484 38.5105L26.4787 64.1157Z" fill="#0F0F0F"/>
<path d="M57.4599 49.0762C59.5678 47.8268 60.693 45.786 60.5657 43.3353C60.3605 39.3847 56.9678 36.8146 50.323 37.1688L37.3945 37.8578L38.7246 63.4629L52.3754 62.7354C59.1647 62.3735 62.6411 59.584 62.4111 55.1579C62.2496 52.0487 60.3661 49.9483 57.4599 49.0762ZM49.6558 42.4496C52.0392 42.3225 53.3108 43.0984 53.3944 44.7078C53.4799 46.3539 52.2957 47.2607 49.9123 47.3877L45.0009 47.6495L44.7444 42.7113L49.6558 42.4496ZM51.5259 57.5354L45.5311 57.8549L45.2613 52.6607L51.256 52.3412C53.7118 52.2103 55.0555 52.9823 55.1467 54.7382C55.2379 56.4939 53.9816 57.4045 51.5259 57.5354Z" fill="#0F0F0F"/>
<path d="M23.2188 62.6456L64.1327 61.2793L64.6361 76.7446L23.7222 78.1108L23.2188 62.6456Z" fill="#FFD700"/>
<path d="M30.8245 70.269C31.4181 69.9144 31.7985 69.295 31.7661 68.4758C31.7161 67.2128 30.6731 66.4461 28.786 66.5228L25.1016 66.6725L25.4171 74.637L29.3261 74.4781C31.3481 74.3959 32.3724 73.5566 32.3183 72.1912C32.2773 71.1558 31.6778 70.5079 30.8245 70.269ZM28.6747 67.6898C29.6857 67.6487 30.2729 67.9894 30.3023 68.729C30.3311 69.4572 29.7727 69.8445 28.7617 69.8857L26.6948 69.9696L26.6079 67.7738L28.6747 67.6898ZM29.1903 73.3213L26.8314 73.4171L26.7403 71.1188L29.0993 71.0229C30.2001 70.9782 30.8094 71.3067 30.841 72.1032C30.8725 72.8995 30.2911 73.2765 29.1903 73.3213Z" fill="#08382C"/>
<path d="M42.0645 73.9604L43.5922 73.8983L39.7271 66.0781L38.2893 66.1365L35.0664 74.2448L36.5716 74.1835L37.2736 72.3089L41.2052 72.1491L42.0645 73.9604ZM37.722 71.1283L39.0555 67.5868L40.6762 71.0082L37.722 71.1283Z" fill="#08382C"/>
<path d="M49.2538 73.7821C51.4105 73.6945 52.3895 72.5607 52.3389 71.2864C52.2231 68.3624 47.6052 69.6554 47.5381 67.9602C47.5141 67.3571 47.9895 66.8591 49.2026 66.8098C49.8878 66.782 50.671 66.9553 51.3954 67.3475L51.8104 66.1796C51.1072 65.7524 50.1088 65.5422 49.1651 65.5806C47.0085 65.6683 46.0408 66.8016 46.0918 68.0873C46.2089 71.0455 50.8372 69.7292 50.9053 71.4473C50.9287 72.0388 50.4295 72.5036 49.2052 72.5534C48.2391 72.5926 47.225 72.2692 46.5757 71.7827L46.1157 72.9524C46.7897 73.4949 48.0294 73.8319 49.2538 73.7821Z" fill="#08382C"/>
<path d="M57.5119 72.0906L57.4249 69.8946L61.2216 69.7403L61.1734 68.5229L57.3766 68.6773L57.2946 66.6065L61.5743 66.4326L61.5252 65.1924L55.7852 65.4257L56.1007 73.3901L61.9979 73.1504L61.9488 71.9103L57.5119 72.0906Z" fill="#08382C"/>
</g>
</g>
</g>
<defs>
<clipPath id="clip0_4075_34075">
<rect width="82.5" height="77.8302" fill="white" transform="translate(0.5 0.584961)"/>
</clipPath>
<clipPath id="clip1_4075_34075">
<rect width="82.1541" height="77.8302" fill="white" transform="translate(0.5 0.584961)"/>
</clipPath>
</defs>
</svg>
