<svg width="180" height="55" viewBox="0 0 180 55" fill="none" xmlns="http://www.w3.org/2000/svg">
<rect x="2.5" y="2.5" width="175" height="50.5556" rx="7.77778" fill="white"/>
<path d="M19.8972 10.7875C19.5169 11.1762 19.2969 11.7812 19.2969 12.5649V40.5158C19.2969 41.2994 19.5169 41.9045 19.8972 42.2931L19.9911 42.3784L36.0333 26.722V26.3523L19.9911 10.6959L19.8972 10.7875Z" fill="url(#paint0_linear_4075_34110)"/>
<path d="M41.3727 31.9429L36.0312 26.7214V26.3517L41.3792 21.1303L41.499 21.1982L47.8324 24.7166C49.6398 25.7151 49.6398 27.3581 47.8324 28.3629L41.499 31.8749L41.3727 31.9429Z" fill="url(#paint1_linear_4075_34110)"/>
<path d="M41.4984 31.8754L36.0307 26.5371L19.8945 42.293C20.4949 42.9092 21.4738 42.9834 22.5871 42.3673L41.4984 31.8754Z" fill="url(#paint2_linear_4075_34110)"/>
<path d="M41.4984 21.2002L22.5871 10.7084C21.4738 10.0985 20.4949 10.1728 19.8945 10.7889L36.0307 26.5386L41.4984 21.2002Z" fill="url(#paint3_linear_4075_34110)"/>
<path d="M93.985 29.0207C90.9445 29.0207 88.4607 31.2799 88.4607 34.397C88.4607 37.4888 90.9445 39.7717 93.985 39.7717C97.032 39.7717 99.5158 37.4888 99.5158 34.397C99.5158 31.2799 97.032 29.0207 93.985 29.0207ZM93.985 37.6547C92.3167 37.6547 90.8814 36.3102 90.8814 34.397C90.8814 32.4585 92.3167 31.1377 93.985 31.1377C95.6533 31.1377 97.0951 32.4585 97.0951 34.397C97.0951 36.3102 95.6533 37.6547 93.985 37.6547ZM81.9315 29.0207C78.8845 29.0207 76.4071 31.2799 76.4071 34.397C76.4071 37.4888 78.8845 39.7717 81.9315 39.7717C84.9768 39.7717 87.4558 37.4888 87.4558 34.397C87.4558 31.2799 84.9768 29.0207 81.9315 29.0207ZM81.9315 37.6547C80.2615 37.6547 78.8214 36.3102 78.8214 34.397C78.8214 32.4585 80.2615 31.1377 81.9315 31.1377C83.5998 31.1377 85.0351 32.4585 85.0351 34.397C85.0351 36.3102 83.5998 37.6547 81.9315 37.6547ZM67.5883 30.6685V32.953H73.1757C73.0123 34.2295 72.5754 35.168 71.9055 35.822C71.0899 36.6119 69.8197 37.4888 67.5883 37.4888C64.1497 37.4888 61.4571 34.7793 61.4571 31.4221C61.4571 28.0649 64.1497 25.3554 67.5883 25.3554C69.4475 25.3554 70.8003 26.0648 71.7987 26.9843L73.4476 25.3744C72.0511 24.0726 70.1935 23.0725 67.5883 23.0725C62.873 23.0725 58.9102 26.8184 58.9102 31.4221C58.9102 36.0258 62.873 39.7717 67.5883 39.7717C70.1368 39.7717 72.0511 38.9565 73.556 37.4272C75.0981 35.9215 75.5786 33.8045 75.5786 32.0951C75.5786 31.5643 75.5333 31.0761 75.4524 30.6685H67.5883ZM126.239 32.4395C125.785 31.2373 124.382 29.0207 121.524 29.0207C118.692 29.0207 116.335 31.1993 116.335 34.397C116.335 37.4082 118.668 39.7717 121.796 39.7717C124.325 39.7717 125.785 38.2661 126.385 37.3892L124.508 36.168C123.882 37.0622 123.029 37.6547 121.796 37.6547C120.571 37.6547 119.692 37.1064 119.129 36.0258L126.493 33.0509L126.239 32.4395ZM118.731 34.2295C118.668 32.1567 120.38 31.0951 121.607 31.0951C122.568 31.0951 123.383 31.5643 123.655 32.2357L118.731 34.2295ZM112.746 39.4446H115.166V23.646H112.746V39.4446ZM108.781 30.2182H108.7C108.157 29.5895 107.119 29.0207 105.806 29.0207C103.048 29.0207 100.527 31.3842 100.527 34.4144C100.527 37.4272 103.048 39.7717 105.806 39.7717C107.119 39.7717 108.157 39.1982 108.7 38.5504H108.781V39.3214C108.781 41.3768 107.657 42.4811 105.843 42.4811C104.364 42.4811 103.446 41.4384 103.068 40.5616L100.962 41.4195C101.569 42.8445 103.176 44.5981 105.843 44.5981C108.681 44.5981 111.076 42.9677 111.076 39.0007V29.3477H108.781V30.2182ZM106.013 37.6547C104.344 37.6547 102.948 36.2912 102.948 34.4144C102.948 32.5201 104.344 31.1377 106.013 31.1377C107.657 31.1377 108.953 32.5201 108.953 34.4144C108.953 36.2912 107.657 37.6547 106.013 37.6547ZM137.573 23.646H131.783V39.4446H134.197V33.4585H137.573C140.254 33.4585 142.884 31.5643 142.884 28.5515C142.884 25.5403 140.248 23.646 137.573 23.646ZM137.636 31.261H134.197V25.8436H137.636C139.439 25.8436 140.468 27.305 140.468 28.5515C140.468 29.7743 139.439 31.261 137.636 31.261ZM152.56 28.9907C150.816 28.9907 149.002 29.7427 148.256 31.4095L150.398 32.2863C150.859 31.4095 151.707 31.1251 152.604 31.1251C153.856 31.1251 155.127 31.8597 155.146 33.1568V33.3227C154.709 33.0762 153.774 32.7113 152.623 32.7113C150.316 32.7113 147.965 33.9515 147.965 36.266C147.965 38.383 149.855 39.7464 151.979 39.7464C153.604 39.7464 154.5 39.0307 155.063 38.1981H155.146V39.4194H157.478V33.359C157.478 30.5579 155.335 28.9907 152.56 28.9907ZM152.269 37.6483C151.479 37.6483 150.379 37.266 150.379 36.3102C150.379 35.0874 151.751 34.6182 152.939 34.6182C154.002 34.6182 154.5 34.8472 155.146 35.149C154.957 36.6119 153.667 37.6483 152.269 37.6483ZM165.973 29.3367L163.198 36.1854H163.115L160.246 29.3367H157.643L161.953 38.9075L159.494 44.2332H162.017L168.659 29.3367H165.973ZM144.211 39.4446H146.631V23.646H144.211V39.4446Z" fill="#0F0F0F"/>
<path d="M66.7614 14.557C66.7614 15.6123 66.4378 16.4576 65.8002 17.0879C65.0672 17.8352 64.1125 18.2112 62.9426 18.2112C61.8244 18.2112 60.8697 17.8289 60.0865 17.0753C59.3017 16.3106 58.9102 15.3722 58.9102 14.2489C58.9102 13.1256 59.3017 12.1872 60.0865 11.4289C60.8697 10.6689 61.8244 10.2866 62.9426 10.2866C63.4992 10.2866 64.03 10.3988 64.5364 10.6073C65.0413 10.8175 65.4523 11.1018 65.75 11.4526L65.0737 12.1193C64.5542 11.5205 63.8471 11.2251 62.9426 11.2251C62.127 11.2251 61.4199 11.5031 60.8196 12.064C60.2257 12.6264 59.928 13.3547 59.928 14.2489C59.928 15.1431 60.2257 15.8777 60.8196 16.4402C61.4199 16.9947 62.127 17.2791 62.9426 17.2791C63.8083 17.2791 64.5364 16.9947 65.1109 16.4339C65.4895 16.0626 65.7047 15.5507 65.7614 14.8967H62.9426V13.9835H66.7031C66.7484 14.181 66.7614 14.3721 66.7614 14.557Z" fill="#0F0F0F" stroke="#0F0F0F" stroke-width="0.155556" stroke-miterlimit="10"/>
<path d="M72.7238 11.389H69.1914V13.7904H72.3759V14.7036H69.1914V17.105H72.7238V18.0355H68.1914V10.4585H72.7238V11.389Z" fill="#0F0F0F" stroke="#0F0F0F" stroke-width="0.155556" stroke-miterlimit="10"/>
<path d="M76.9362 18.0355H75.9362V11.389H73.7695V10.4585H79.1045V11.389H76.9362V18.0355Z" fill="#0F0F0F" stroke="#0F0F0F" stroke-width="0.155556" stroke-miterlimit="10"/>
<path d="M82.9648 18.0355V10.4585H83.9632V18.0355H82.9648Z" fill="#0F0F0F" stroke="#0F0F0F" stroke-width="0.155556" stroke-miterlimit="10"/>
<path d="M88.3933 18.0355H87.4013V11.389H85.2266V10.4585H90.568V11.389H88.3933V18.0355Z" fill="#0F0F0F" stroke="#0F0F0F" stroke-width="0.155556" stroke-miterlimit="10"/>
<path d="M100.656 17.0626C99.8909 17.8289 98.9427 18.2112 97.8116 18.2112C96.674 18.2112 95.7258 17.8289 94.9604 17.0626C94.1967 16.298 93.8164 15.3596 93.8164 14.2489C93.8164 13.1383 94.1967 12.1998 94.9604 11.4352C95.7258 10.6689 96.674 10.2866 97.8116 10.2866C98.9362 10.2866 99.8845 10.6689 100.65 11.4415C101.42 12.2125 101.8 13.1446 101.8 14.2489C101.8 15.3596 101.42 16.298 100.656 17.0626ZM95.6999 16.4275C96.276 16.9947 96.9766 17.2791 97.8116 17.2791C98.6401 17.2791 99.3472 16.9947 99.9168 16.4275C100.491 15.8604 100.783 15.1321 100.783 14.2489C100.783 13.3658 100.491 12.6375 99.9168 12.0703C99.3472 11.5031 98.6401 11.2187 97.8116 11.2187C96.9766 11.2187 96.276 11.5031 95.6999 12.0703C95.1255 12.6375 94.8342 13.3658 94.8342 14.2489C94.8342 15.1321 95.1255 15.8604 95.6999 16.4275Z" fill="#0F0F0F" stroke="#0F0F0F" stroke-width="0.155556" stroke-miterlimit="10"/>
<path d="M103.211 18.0355V10.4585H104.425L108.198 16.3514H108.242L108.198 14.8947V10.4585H109.196V18.0355H108.154L104.203 11.8519H104.159L104.203 13.3149V18.0355H103.211Z" fill="#0F0F0F" stroke="#0F0F0F" stroke-width="0.155556" stroke-miterlimit="10"/>
<rect x="1.52778" y="1.52778" width="176.944" height="52.5" rx="8.75" stroke="#A6A6A6" stroke-width="1.94444"/>
<defs>
<linearGradient id="paint0_linear_4075_34110" x1="34.609" y1="40.8068" x2="13.404" y2="19.088" gradientUnits="userSpaceOnUse">
<stop stop-color="#00A0FF"/>
<stop offset="0.0066" stop-color="#00A1FF"/>
<stop offset="0.2601" stop-color="#00BEFF"/>
<stop offset="0.5122" stop-color="#00D2FF"/>
<stop offset="0.7604" stop-color="#00DFFF"/>
<stop offset="1" stop-color="#00E3FF"/>
</linearGradient>
<linearGradient id="paint1_linear_4075_34110" x1="50.186" y1="26.5348" x2="18.8628" y2="26.5348" gradientUnits="userSpaceOnUse">
<stop stop-color="#FFE000"/>
<stop offset="0.4087" stop-color="#FFBD00"/>
<stop offset="0.7754" stop-color="#FFA500"/>
<stop offset="1" stop-color="#FF9C00"/>
</linearGradient>
<linearGradient id="paint2_linear_4075_34110" x1="38.5252" y1="23.6351" x2="9.76946" y2="-5.81744" gradientUnits="userSpaceOnUse">
<stop stop-color="#FF3A44"/>
<stop offset="1" stop-color="#C31162"/>
</linearGradient>
<linearGradient id="paint3_linear_4075_34110" x1="15.8327" y1="51.5937" x2="28.6735" y2="38.4419" gradientUnits="userSpaceOnUse">
<stop stop-color="#32A071"/>
<stop offset="0.0685" stop-color="#2DA771"/>
<stop offset="0.4762" stop-color="#15CF74"/>
<stop offset="0.8009" stop-color="#06E775"/>
<stop offset="1" stop-color="#00F076"/>
</linearGradient>
</defs>
</svg>
