<svg width="25" height="25" viewBox="0 0 25 25" fill="none" xmlns="http://www.w3.org/2000/svg">
<path d="M13.5271 2.41602C14.6525 2.41788 15.2228 2.42383 15.7156 2.4385L15.9097 2.44485C16.1339 2.45282 16.3551 2.46282 16.6218 2.47532C17.6859 2.52448 18.4118 2.69282 19.0493 2.94032C19.7084 3.19448 20.2651 3.53782 20.8209 4.09365C21.3759 4.64948 21.7193 5.20782 21.9743 5.86532C22.2209 6.50198 22.3893 7.22865 22.4393 8.29282C22.4512 8.55948 22.4608 8.78068 22.4687 9.00493L22.475 9.19901C22.4896 9.69176 22.4963 10.2621 22.4984 11.3875L22.4992 12.1332C22.4993 12.2243 22.4993 12.3183 22.4993 12.4153L22.4992 12.6974L22.4986 13.4431C22.4967 14.5685 22.4908 15.1388 22.4761 15.6316L22.4697 15.8257C22.4618 16.0499 22.4518 16.2711 22.4393 16.5378C22.3901 17.6019 22.2209 18.3278 21.9743 18.9653C21.7201 19.6244 21.3759 20.1811 20.8209 20.7369C20.2651 21.2919 19.7059 21.6353 19.0493 21.8903C18.4118 22.1369 17.6859 22.3053 16.6218 22.3553C16.3551 22.3672 16.1339 22.3768 15.9097 22.3847L15.7156 22.391C15.2228 22.4056 14.6525 22.4123 13.5271 22.4144L12.7814 22.4152C12.6903 22.4153 12.5963 22.4153 12.4993 22.4153L12.2172 22.4152L11.4715 22.4146C10.3461 22.4127 9.77574 22.4068 9.28299 22.3921L9.08891 22.3857C8.86466 22.3778 8.64346 22.3678 8.3768 22.3553C7.31263 22.3061 6.58763 22.1369 5.9493 21.8903C5.29096 21.6361 4.73346 21.2919 4.17763 20.7369C3.6218 20.1811 3.2793 19.6219 3.0243 18.9653C2.7768 18.3278 2.6093 17.6019 2.5593 16.5378C2.54742 16.2711 2.53773 16.0499 2.52988 15.8257L2.52359 15.6316C2.50896 15.1388 2.50229 14.5685 2.50013 13.4431L2.5 11.3875C2.50186 10.2621 2.50781 9.69176 2.52248 9.19901L2.52883 9.00493C2.5368 8.78068 2.5468 8.55948 2.5593 8.29282C2.60846 7.22782 2.7768 6.50282 3.0243 5.86532C3.27846 5.20698 3.6218 4.64948 4.17763 4.09365C4.73346 3.53782 5.2918 3.19532 5.9493 2.94032C6.5868 2.69282 7.3118 2.52532 8.3768 2.47532C8.64346 2.46344 8.86466 2.45375 9.08891 2.4459L9.28299 2.43961C9.77574 2.42498 10.3461 2.41831 11.4715 2.41615L13.5271 2.41602ZM12.4993 7.41532C9.7364 7.41532 7.4993 9.65485 7.4993 12.4153C7.4993 15.1782 9.73883 17.4153 12.4993 17.4153C15.2622 17.4153 17.4993 15.1757 17.4993 12.4153C17.4993 9.65242 15.2597 7.41532 12.4993 7.41532ZM12.4993 9.41532C14.1562 9.41532 15.4993 10.7579 15.4993 12.4153C15.4993 14.0722 14.1566 15.4153 12.4993 15.4153C10.8424 15.4153 9.4993 14.0726 9.4993 12.4153C9.4993 10.7584 10.8419 9.41532 12.4993 9.41532ZM17.7493 5.91532C17.06 5.91532 16.4993 6.47522 16.4993 7.16447C16.4993 7.85371 17.0592 8.41448 17.7493 8.41448C18.4385 8.41448 18.9993 7.85458 18.9993 7.16447C18.9993 6.47522 18.4376 5.91445 17.7493 5.91532Z" fill="white"/>
</svg>
