<svg width="75" height="74" viewBox="0 0 75 74" fill="none" xmlns="http://www.w3.org/2000/svg">
<rect x="0.5" width="74" height="74" rx="37" fill="#0F0F0F"/>
<path d="M25.5 37.6836L25.9172 37.0604L24.75 36.2791V37.6836H25.5ZM49.5 37.6836H50.25V36.2791L49.0828 37.0604L49.5 37.6836ZM24.75 37.6836V49.552H26.25V37.6836H24.75ZM27.375 37.502C26.8343 37.502 26.3339 37.3393 25.9172 37.0604L25.0828 38.3069C25.7387 38.7459 26.5281 39.002 27.375 39.002V37.502ZM30 34.877C30 36.3267 28.8247 37.502 27.375 37.502V39.002C29.6532 39.002 31.5 37.1551 31.5 34.877H30ZM34.125 37.502C32.6753 37.502 31.5 36.3267 31.5 34.877H30C30 37.1551 31.8468 39.002 34.125 39.002V37.502ZM36.75 34.877C36.75 36.3267 35.5747 37.502 34.125 37.502V39.002C36.4032 39.002 38.25 37.1551 38.25 34.877H36.75ZM40.875 37.502C39.4253 37.502 38.25 36.3267 38.25 34.877H36.75C36.75 37.1551 38.5968 39.002 40.875 39.002V37.502ZM43.5 34.877C43.5 36.3267 42.3247 37.502 40.875 37.502V39.002C43.1532 39.002 45 37.1551 45 34.877H43.5ZM47.625 37.502C46.1753 37.502 45 36.3267 45 34.877H43.5C43.5 37.1551 45.3468 39.002 47.625 39.002V37.502ZM49.0828 37.0604C48.6661 37.3393 48.1657 37.502 47.625 37.502V39.002C48.4719 39.002 49.2613 38.7459 49.9172 38.3069L49.0828 37.0604ZM50.25 49.552V37.6836H48.75V49.552H50.25ZM47.3 52.502C48.9292 52.502 50.25 51.1812 50.25 49.552H48.75C48.75 50.3528 48.1008 51.002 47.3 51.002V52.502ZM27.7 52.502H47.3V51.002H27.7V52.502ZM24.75 49.552C24.75 51.1812 26.0708 52.502 27.7 52.502V51.002C26.8992 51.002 26.25 50.3528 26.25 49.552H24.75Z" fill="#FFDB00"/>
<path d="M28.5893 22.5928C29.0064 22.0619 29.6441 21.752 30.3192 21.752H44.6807C45.3558 21.752 45.9935 22.0619 46.4106 22.5927L52.6017 30.4723C53.1688 31.1941 52.6547 32.252 51.7368 32.252H23.2632C22.3453 32.252 21.8312 31.1941 22.3982 30.4724L28.5893 22.5928Z" stroke="#FFDB00"/>
<path d="M34.5 43.852C34.5 43.2444 34.9925 42.752 35.6 42.752H40C40.6075 42.752 41.1 43.2444 41.1 43.852V51.002H34.5V43.852Z" stroke="#FFDB00"/>
<path d="M24 32.252H30.75V34.877C30.75 36.7409 29.239 38.252 27.375 38.252V38.252C25.511 38.252 24 36.7409 24 34.877V32.252Z" stroke="#FFDB00"/>
<path d="M30.75 32.252H37.5V34.877C37.5 36.7409 35.989 38.252 34.125 38.252V38.252C32.261 38.252 30.75 36.7409 30.75 34.877V32.252Z" stroke="#FFDB00"/>
<path d="M37.5 32.252H44.25V34.877C44.25 36.7409 42.739 38.252 40.875 38.252V38.252C39.011 38.252 37.5 36.7409 37.5 34.877V32.252Z" stroke="#FFDB00"/>
<path d="M44.25 32.252H51V34.877C51 36.7409 49.489 38.252 47.625 38.252V38.252C45.761 38.252 44.25 36.7409 44.25 34.877V32.252Z" stroke="#FFDB00"/>
<rect x="22.5" y="29.252" width="30" height="3" rx="1.5" stroke="#FFDB00"/>
</svg>
