<svg width="25" height="25" viewBox="0 0 25 25" fill="none" xmlns="http://www.w3.org/2000/svg">
<path d="M12.7439 4.41504C13.278 4.41798 14.6143 4.4309 16.0341 4.48777L16.5375 4.50972C17.967 4.5774 19.3953 4.69302 20.1037 4.89054C21.0486 5.15599 21.7913 5.93054 22.0423 6.91236C22.442 8.47145 22.492 11.5144 22.4982 12.2508L22.4991 12.4034V12.4141C22.4991 12.4141 22.4991 12.4178 22.4991 12.4249L22.4982 12.5775C22.492 13.3139 22.442 16.3569 22.0423 17.916C21.7878 18.9014 21.0451 19.676 20.1037 19.9378C19.3953 20.1353 17.967 20.2509 16.5375 20.3186L16.0341 20.3405C14.6143 20.3974 13.278 20.4103 12.7439 20.4133L12.5095 20.4141H12.4991C12.4991 20.4141 12.4956 20.4141 12.4887 20.4141L12.2545 20.4133C11.1241 20.4071 6.39772 20.356 4.89451 19.9378C3.9496 19.6723 3.20692 18.8978 2.95587 17.916C2.5562 16.3569 2.50624 13.3139 2.5 12.5775V12.2508C2.50624 11.5144 2.5562 8.47145 2.95587 6.91236C3.2104 5.9269 3.95308 5.15236 4.89451 4.89054C6.39772 4.47227 11.1241 4.42126 12.2545 4.41504H12.7439ZM10.4991 8.91418V15.9141L16.4991 12.4141L10.4991 8.91418Z" fill="white"/>
</svg>
